<svg xmlns="http://www.w3.org/2000/svg" viewBox="0 0 64 64"><path d="M20 48l3-10a16 16 0 1 1 6 6l-9 4Z" fill="none" stroke="#111111" stroke-width="4" stroke-linejoin="round"/><path d="M27 24c-1 0-2 .5-2.5 1.6-.6 1.1-1 2.4-1 3.1 0 .8.4 1.8.6 2.2.3.4 3.2 5.1 7.8 7 4.5 1.8 4.6 1.2 5.4 1.1.8-.1 2.6-1 3-2 .4-1 .4-1.8.3-2-.1-.2-.4-.3-.9-.5s-2.6-1.3-3-1.4c-.4-.2-.7-.2-1 .2s-1.1 1.4-1.4 1.8c-.3.3-.5.4-1 .1s-1.9-.9-3.7-3.1c-1.5-1.8-2.4-4-2.7-4.4-.3-.5 0-.8.2-1l.7-.8.5-.7c.1-.2.1-.5 0-.8s-.9-2.5-1.3-3.3c-.4-.9-.7-.7-1-.7h-.5Z" fill="#111111"/></svg>
